# xmcd CD database file
#
# Track frame offsets:
#	150
#	18214
#	37454
#	58116
#	80753
#	102597
#	117777
#	132172
#	147092
#
# Disc length: 2256 seconds
#
# Revision: 0
# Processed by: cddbd v1.5.1PL0 Copyright (c) Steve Scherf et al.
# Submitted via: CDex 1.51
#
DISCID=7f08ce09
DTITLE=Wynton Kelly Trio  - Full View
DYEAR=1967
DGENRE=Jazz
TTITLE0=I Want a Little Girl
TTITLE1=I Thought
TTITLE2=What a Diff'rence a Day Made
TTITLE3=Autumn Leaves
TTITLE4=Don't Cha Hear Me Callin' to Ya
TTITLE5=On a Clear Day (You Can See Forever)
TTITLE6=Scufflin'
TTITLE7=Born to Be Blue
TTITLE8=Walk on By
EXTD=YEAR: 1967
EXTT0=
EXTT1=
EXTT2=
EXTT3=
EXTT4=
EXTT5=
EXTT6=
EXTT7=
EXTT8=
PLAYORDER=
